<svg width="28" height="28" fill="none" xmlns="http://www.w3.org/2000/svg"><circle cx="14" cy="14" r="14" fill="#008EFF"/><path d="M9.758 8.134h5.49c.488 0 .924.074 1.31.221.396.147.73.351 1.003.612.272.26.476.584.612.969.147.374.22.788.22 1.241 0 .453-.062.839-.186 1.156a2.091 2.091 0 01-.476.765c-.193.204-.42.357-.68.459-.25.102-.51.159-.782.17v.102c.26 0 .538.051.833.153.306.102.583.266.833.493.26.215.476.499.646.85.17.34.255.765.255 1.275 0 .476-.08.924-.238 1.343a3.261 3.261 0 01-.63 1.071 3.08 3.08 0 01-.968.731c-.374.17-.782.255-1.224.255H9.758V8.134zm2.244 9.962h3.128c.43 0 .765-.108 1.003-.323.238-.227.357-.55.357-.969v-.578c0-.42-.12-.742-.357-.969-.238-.227-.573-.34-1.003-.34h-3.128v3.179zm0-5.015h2.77c.409 0 .726-.108.953-.323.226-.227.34-.538.34-.935v-.527c0-.397-.114-.703-.34-.918-.227-.227-.544-.34-.952-.34h-2.771v3.043z" fill="#FEFEFE"/></svg>