<?xml version="1.0" encoding="UTF-8"?>
<svg width="32px" height="32px" viewBox="0 0 32 32" version="1.1" xmlns="http://www.w3.org/2000/svg" xmlns:xlink="http://www.w3.org/1999/xlink">
    <!-- Generator: Sketch 61 (89581) - https://sketch.com -->
    <title>Instagram Copy</title>
    <desc>Created with Sketch.</desc>
    <g id="--desktop" stroke="none" stroke-width="1" fill="none" fill-rule="evenodd">
        <g id="2.Грузов-ки:-2.3.1--Аукцион:-Объявление" transform="translate(-1170.000000, -1526.000000)" fill="#008EFF" fill-rule="nonzero">
            <g id="Instagram-Copy" transform="translate(1170.000000, 1526.000000)">
                <path d="M16,0 C24.8365564,0 32,7.16344357 32,16 C32,24.8365564 24.8365564,32 16,32 C7.16344357,32 0,24.8365564 0,16 C0,7.16344357 7.16344357,0 16,0 Z M17.8869104,7 C15.7961374,7 14.3647471,8.40829325 14.3647471,10.994693 L14.3647471,13.2234166 L12,13.2234166 L12,16.2454801 L14.3646727,16.2454801 L14.3646727,24 L17.1926392,24 L17.1926392,16.245398 L19.5512865,16.245398 L19.9044103,13.2233345 L17.1926392,13.2233345 L17.1926392,11.2938373 C17.1926392,10.4188976 17.4128302,9.82257924 18.5498638,9.82257924 L20,9.82184041 L20,7.11895173 C19.7490864,7.08225648 18.888333,7 17.8869104,7 Z" id="Combined-Shape"></path>
            </g>
        </g>
    </g>
</svg>