<?xml version="1.0" encoding="UTF-8"?>
<svg width="32px" height="32px" viewBox="0 0 32 32" version="1.1" xmlns="http://www.w3.org/2000/svg" xmlns:xlink="http://www.w3.org/1999/xlink">
    <!-- Generator: Sketch 61 (89581) - https://sketch.com -->
    <title>Combined Shape</title>
    <desc>Created with Sketch.</desc>
    <g id="--desktop" stroke="none" stroke-width="1" fill="none" fill-rule="evenodd">
        <g id="2.Грузов-ки:-2.3.1--Аукцион:-Объявление" transform="translate(-1299.000000, -1526.000000)" fill="#008EFF" fill-rule="nonzero">
            <path d="M1315,1526 C1323.83656,1526 1331,1533.16344 1331,1542 C1331,1550.83656 1323.83656,1558 1315,1558 C1306.16344,1558 1299,1550.83656 1299,1542 C1299,1533.16344 1306.16344,1526 1315,1526 Z M1320.76819,1542.70518 C1320.33155,1542.01489 1319.74785,1541.83139 1319.0171,1542.15467 C1317.81011,1542.88869 1316.60518,1543.2557 1315.40233,1543.2557 C1314.22749,1543.2557 1313.05473,1542.88869 1311.88403,1542.15467 C1311.132,1541.90331 1310.57814,1542.08681 1310.22246,1542.70518 C1309.80076,1543.43835 1309.9786,1544.10422 1310.75598,1544.70278 C1311.59438,1545.23425 1312.48091,1545.61191 1313.41555,1545.83576 C1313.41555,1545.83576 1312.52903,1546.76486 1310.75598,1548.62305 C1310.20073,1549.47368 1310.23266,1550.14208 1310.85175,1550.62824 C1311.55292,1551.17884 1312.23016,1551.11784 1312.8835,1550.44524 L1312.8835,1550.44524 L1315.4735,1547.94411 L1318.02806,1550.44524 C1318.74969,1551.00348 1319.42449,1551.06448 1320.05243,1550.62824 C1320.68944,1550.1857 1320.80009,1549.59558 1320.38438,1548.85787 C1318.40105,1546.85717 1317.45209,1545.8498 1317.5375,1545.83576 C1318.4189,1545.69085 1319.29317,1545.31319 1320.1603,1544.70278 C1321.01423,1544.08037 1321.21686,1543.4145 1320.76819,1542.70518 Z M1315,1532 C1312.23858,1532 1310,1534.23858 1310,1537 C1310,1539.76142 1312.23858,1542 1315,1542 C1317.76142,1542 1320,1539.76142 1320,1537 C1320,1534.23858 1317.76142,1532 1315,1532 Z M1314.92754,1534.89855 C1316.12816,1534.89855 1317.10145,1535.87184 1317.10145,1537.07246 C1317.10145,1538.27308 1316.12816,1539.24638 1314.92754,1539.24638 C1313.72692,1539.24638 1312.75362,1538.27308 1312.75362,1537.07246 C1312.75362,1535.87184 1313.72692,1534.89855 1314.92754,1534.89855 Z" id="Combined-Shape"></path>
        </g>
    </g>
</svg>