<?xml version="1.0" encoding="UTF-8"?>
<svg width="32px" height="32px" viewBox="0 0 32 32" version="1.1" xmlns="http://www.w3.org/2000/svg" xmlns:xlink="http://www.w3.org/1999/xlink">
    <!-- Generator: Sketch 61 (89581) - https://sketch.com -->
    <title>Instagram</title>
    <desc>Created with Sketch.</desc>
    <g id="--desktop" stroke="none" stroke-width="1" fill="none" fill-rule="evenodd">
        <g id="2.Грузов-ки:-2.3.1--Аукцион:-Объявление" transform="translate(-1211.000000, -1526.000000)" fill="#008EFF" fill-rule="nonzero">
            <g id="Instagram" transform="translate(1211.000000, 1526.000000)">
                <path d="M0,16 C0,7.16344357 7.16344357,0 16,0 C24.8365564,0 32,7.16344357 32,16 C32,24.8365564 24.8365564,32 16,32 C7.16344357,32 0,24.8365564 0,16 Z M16.0008,7.46666667 C13.6832647,7.46666667 13.3924173,7.47680011 12.4821856,7.51822277 C11.5737317,7.5598232 10.9536363,7.70364693 10.4110529,7.91467136 C9.84980261,8.13262917 9.37370875,8.42418773 8.89939269,8.8986816 C8.42472107,9.37299765 8.13316251,9.84909147 7.91449355,10.410164 C7.70293579,10.9529252 7.55893429,11.5731983 7.51804496,12.4812967 C7.47733344,13.3915284 7.46666667,13.6825537 7.46666667,16.0000889 C7.46666667,18.3176242 7.47697787,18.6075827 7.51822277,19.5178144 C7.56000096,20.4262683 7.70382469,21.0463637 7.91467136,21.5889471 C8.13280693,22.1501974 8.42436555,22.6262913 8.89885936,23.1006073 C9.37299765,23.5752789 9.84909147,23.8675486 10.4099862,24.0855065 C10.9529252,24.2965309 11.5731983,24.4403546 12.4814745,24.481955 C13.3917062,24.5233777 13.6823758,24.5335111 15.9997333,24.5335111 C18.3174463,24.5335111 18.607405,24.5233777 19.5176366,24.481955 C20.4260906,24.4403546 21.046897,24.2965309 21.589836,24.0855065 C22.1509085,23.8675486 22.6262913,23.5752789 23.1004295,23.1006073 C23.5751011,22.6262913 23.8666597,22.1501974 24.0853286,21.5891249 C24.2951086,21.0463637 24.4391101,20.4260906 24.4817772,19.5179922 C24.5226666,18.6077605 24.5333333,18.3176242 24.5333333,16.0000889 C24.5333333,13.6825537 24.5226666,13.3917062 24.4817772,12.4814745 C24.4391101,11.5730205 24.2951086,10.9529252 24.0853286,10.4103418 C23.8666597,9.84909147 23.5751011,9.37299765 23.1004295,8.8986816 C22.6257579,8.42400997 22.1510863,8.13245136 21.5893027,7.91467136 C21.045297,7.70364693 20.4248461,7.5598232 19.5163922,7.51822277 C18.6061605,7.47680011 18.3163797,7.46666667 15.9981333,7.46666667 L16.0008,7.46666667 Z" id="Combined-Shape"></path>
                <path d="M15.2352809,9.00446048 C15.4624833,9.00410491 15.7159971,9.00446048 16.0008,9.00446048 C18.2792237,9.00446048 18.549271,9.01263835 19.4490137,9.05352763 C20.2810223,9.09157248 20.7325826,9.23059616 21.0333858,9.34739739 C21.4316122,9.50206565 21.7155262,9.68695648 22.0140182,9.98562624 C22.312688,10.284296 22.4975788,10.5687434 22.6526026,10.9669698 C22.7694038,11.2674174 22.9086053,11.7189777 22.9464724,12.5509863 C22.9873617,13.4505512 22.9962507,13.7207763 22.9962507,15.9981333 C22.9962507,18.2754903 22.9873617,18.5457154 22.9464724,19.4452803 C22.9084275,20.277289 22.7694038,20.7288493 22.6526026,21.0292969 C22.4979343,21.4275232 22.312688,21.7110817 22.0140182,22.0095737 C21.7153484,22.3082435 21.4317899,22.4931343 21.0333858,22.6478026 C20.7329382,22.7651371 20.2810223,22.9038052 19.4490137,22.9418501 C18.5494488,22.9827394 18.2792237,22.9916284 16.0008,22.9916284 C13.7221985,22.9916284 13.4521513,22.9827394 12.5525863,22.9418501 C11.7205777,22.9034497 11.2690174,22.764426 10.9680365,22.6476248 C10.5698101,22.4929565 10.2853627,22.3080657 9.98669291,22.0093959 C9.68802315,21.7107261 9.50313232,21.4269899 9.34810848,21.0285857 C9.23130725,20.7281381 9.09210581,20.2765779 9.05423877,19.4445692 C9.01334944,18.5450043 9.00517157,18.2747793 9.00517157,15.9959999 C9.00517157,13.7172206 9.01334944,13.4484179 9.05423877,12.548853 C9.09228363,11.7168443 9.23130725,11.265284 9.34810848,10.9644809 C9.50277675,10.5662545 9.68802315,10.2818071 9.98669291,9.98313733 C10.2853627,9.68446752 10.5698101,9.49957675 10.9680365,9.34455291 C11.2688396,9.22721835 11.7205777,9.08855024 12.5525863,9.05032763 C13.3397945,9.01477168 13.6448644,9.00410491 15.2352809,9.00232709 L15.2352809,9.00446048 Z M20.5558697,10.4213641 C19.9905305,10.4213641 19.531859,10.8795022 19.531859,11.4450192 C19.531859,12.0103585 19.9905305,12.4690299 20.5558697,12.4690299 C21.1212089,12.4690299 21.5798803,12.0103585 21.5798803,11.4450192 C21.5798803,10.87968 21.1212089,10.4210085 20.5558697,10.4210085 L20.5558697,10.4213641 Z M16.0008,11.617821 C13.5806859,11.617821 11.6185322,13.5799748 11.6185322,16.0000889 C11.6185322,18.420203 13.5806859,20.3814678 16.0008,20.3814678 C18.4209141,20.3814678 20.3823567,18.420203 20.3823567,16.0000889 C20.3823567,13.5799748 18.4207363,11.617821 16.0006222,11.617821 L16.0008,11.617821 Z" id="Combined-Shape"></path>
                <path d="M16.0008,13.1556148 C17.5716608,13.1556148 18.8452741,14.4290503 18.8452741,16.0000889 C18.8452741,17.5709497 17.5716608,18.844563 16.0008,18.844563 C14.4297614,18.844563 13.1563259,17.5709497 13.1563259,16.0000889 C13.1563259,14.4290503 14.4297614,13.1556148 16.0008,13.1556148 L16.0008,13.1556148 Z" id="Shape"></path>
            </g>
        </g>
    </g>
</svg>