<svg width="22" height="16" xmlns:xlink="http://www.w3.org/1999/xlink" xmlns="http://www.w3.org/2000/svg"><defs><clipPath id="c"><use xlink:href="#a"/></clipPath><filter filterUnits="userSpaceOnUse" color-interpolation-filters="sRGB" id="b"><feFlood flood-opacity="0" result="BackgroundImageFix"/><feBlend in="SourceGraphic" in2="BackgroundImageFix" result="shape"/><feColorMatrix in="SourceAlpha" values="0 0 0 0 0 0 0 0 0 0 0 0 0 0 0 0 0 0 127 0" result="hardAlpha"/><feMorphology radius="1" in="SourceAlpha" result="effect0_innerShadow"/><feOffset/><feGaussianBlur/><feComposite in2="hardAlpha" operator="arithmetic" k2="-1" k3="1"/><feColorMatrix values="0 0 0 0 0 0 0 0 0 0 0 0 0 0 0 0 0 0 0.12156863 0"/><feBlend in2="shape" result="effect0_innerShadow"/></filter><path d="M0 1.999v11.002q0 .098.01.196t.028.194q.02.096.048.19.029.094.066.185.038.09.084.177.046.087.1.169.055.081.118.157.062.076.131.146.07.069.146.131.076.063.157.117.082.055.169.101.086.046.177.084.09.037.185.066.094.028.19.048.096.019.194.028.098.01.196.01h17.002q.098 0 .196-.01t.194-.028q.096-.02.19-.048.094-.029.185-.066.09-.038.177-.084.087-.046.169-.1.081-.056.157-.118.076-.062.146-.131.069-.07.131-.146.063-.076.117-.157.055-.082.101-.169.046-.086.084-.177.037-.09.066-.185.028-.094.048-.19.019-.096.028-.194.01-.098.01-.196V1.999q0-.098-.01-.196t-.028-.194q-.02-.096-.048-.19-.029-.094-.066-.185-.038-.09-.084-.177-.046-.087-.1-.169-.056-.081-.118-.157-.062-.076-.131-.146-.07-.069-.146-.131-.076-.063-.157-.117-.082-.055-.169-.101-.086-.046-.177-.084-.09-.037-.185-.066-.094-.028-.19-.048-.096-.019-.194-.028Q19.099 0 19 0H1.999q-.098 0-.196.01T1.61.038q-.096.02-.19.048-.094.029-.185.066-.09.038-.177.084-.087.046-.169.1Q.807.392.731.455.655.516.585.585.516.655.454.731.39.807.337.888.282.97.236 1.057q-.046.086-.084.177-.037.09-.066.185-.028.094-.048.19-.019.096-.028.194Q0 1.901 0 2z" id="a"/></defs><use fill="#29B3CB" xlink:href="#a" fill-rule="evenodd" filter="url(#b)" transform="translate(.5 .5)"/><path d="M1 1.999v12.002q0 .098.02.195.018.096.056.187.038.091.092.173.055.082.125.151.07.07.151.125.082.054.173.092.09.038.187.057Q1.901 15 2 15h18.002q.098 0 .195-.02.096-.018.187-.056.091-.038.173-.092.082-.055.151-.125.07-.07.125-.151.054-.082.092-.173.038-.09.057-.187Q21 14.099 21 14V1.999q0-.098-.02-.195-.018-.096-.056-.187-.038-.091-.092-.173-.055-.082-.125-.151-.07-.07-.151-.125-.082-.054-.173-.092-.09-.038-.187-.057Q20.099 1 20 1H1.999q-.098 0-.195.02-.096.018-.187.056-.091.038-.173.092-.082.055-.151.125-.07.07-.125.151-.054.082-.092.173-.038.09-.057.187Q1 1.901 1 2h0z" fill="none" stroke="#2F343A" stroke-opacity=".157"/><g clip-path="url(#c)" fill="#FDD92F" fill-rule="evenodd" transform="translate(.5 .5)"><path d="M10.5 11a3.5 3.5 0 100-7 3.5 3.5 0 000 7zM2 5V4h2v1H2zm0 2V6h2v1H2zm0 2V8h2v1H2zm0 2v-1h2v1H2z"/></g></svg>